<svg width="16" height="12" viewBox="0 0 16 12" fill="none" xmlns="http://www.w3.org/2000/svg">
<path fill-rule="evenodd" clip-rule="evenodd" d="M0.5 1.5C0.5 0.947715 0.947715 0.5 1.5 0.5H14.5C15.0523 0.5 15.5 0.947715 15.5 1.5C15.5 2.05228 15.0523 2.5 14.5 2.5H1.5C0.947715 2.5 0.5 2.05228 0.5 1.5ZM0.5 6C0.5 5.44772 0.947715 5 1.5 5H14.5C15.0523 5 15.5 5.44772 15.5 6C15.5 6.55228 15.0523 7 14.5 7H1.5C0.947715 7 0.5 6.55228 0.5 6ZM0.5 10.5C0.5 9.94771 0.947715 9.5 1.5 9.5H14.5C15.0523 9.5 15.5 9.94771 15.5 10.5C15.5 11.0523 15.0523 11.5 14.5 11.5H1.5C0.947715 11.5 0.5 11.0523 0.5 10.5Z" fill="#121212"/>
</svg>
