<svg width="24" height="24" viewBox="0 0 24 24" fill="none" xmlns="http://www.w3.org/2000/svg">
<path d="M10.3744 22.2318C10.5381 22.4528 10.7677 22.721 11.1092 22.8908C11.6702 23.1699 12.3296 23.1699 12.8907 22.8908C13.2322 22.721 13.4617 22.4528 13.6255 22.2318C13.7848 22.0166 13.9572 21.7381 14.1449 21.4348L19.0076 13.5798C22.4065 8.08923 18.4574 1 11.9999 1C5.54245 1 1.59334 8.08923 4.99226 13.5798L9.85487 21.4348C10.0426 21.7381 10.215 22.0166 10.3744 22.2318Z" fill="#FFAFAA"/>
<path fill-rule="evenodd" clip-rule="evenodd" d="M12 7C10.8954 7 10 7.89543 10 9C10 10.1046 10.8954 11 12 11C13.1046 11 14 10.1046 14 9C14 7.89543 13.1046 7 12 7ZM8 9C8 6.79086 9.79086 5 12 5C14.2091 5 16 6.79086 16 9C16 11.2091 14.2091 13 12 13C9.79086 13 8 11.2091 8 9Z" fill="#121212"/>
</svg>
