<svg width="22" height="18" viewBox="0 0 22 18" fill="none" xmlns="http://www.w3.org/2000/svg">
<path fill-rule="evenodd" clip-rule="evenodd" d="M0 7C0 3.13401 3.13401 0 7 0H15C18.866 0 22 3.13401 22 7C22 10.866 18.866 14 15 14H10.3508L5.62469 17.7809C5.32452 18.021 4.91328 18.0678 4.56681 17.9013C4.22035 17.7348 4 17.3844 4 17V13.3261C1.63609 12.2031 0 9.79368 0 7ZM7 2C4.23858 2 2 4.23858 2 7C2 9.17547 3.38991 11.0289 5.33325 11.7157C5.73284 11.857 6 12.2348 6 12.6586V14.9194L9.37531 12.2191C9.55262 12.0773 9.77293 12 10 12H15C17.7614 12 20 9.76142 20 7C20 4.23858 17.7614 2 15 2H7Z" fill="#121212"/>
<path fill-rule="evenodd" clip-rule="evenodd" d="M11 6.00236C11.551 6.00236 11.9976 6.44902 11.9976 7V8C11.9976 8.55098 11.551 8.99764 11 8.99764C10.449 8.99764 10.0024 8.55098 10.0024 8V7C10.0024 6.44902 10.449 6.00236 11 6.00236Z" fill="#121212"/>
<path fill-rule="evenodd" clip-rule="evenodd" d="M7 6.00236C7.55098 6.00236 7.99764 6.44902 7.99764 7V8C7.99764 8.55098 7.55098 8.99764 7 8.99764C6.44902 8.99764 6.00236 8.55098 6.00236 8V7C6.00236 6.44902 6.44902 6.00236 7 6.00236Z" fill="#121212"/>
<path fill-rule="evenodd" clip-rule="evenodd" d="M15 6.00236C15.551 6.00236 15.9976 6.44902 15.9976 7V8C15.9976 8.55098 15.551 8.99764 15 8.99764C14.449 8.99764 14.0024 8.55098 14.0024 8V7C14.0024 6.44902 14.449 6.00236 15 6.00236Z" fill="#121212"/>
</svg>
