<svg width="16" height="19" viewBox="0 0 16 19" fill="none" xmlns="http://www.w3.org/2000/svg">
<path d="M8.6 7.80006C8.15817 8.13143 7.53137 8.04189 7.2 7.60006C6.86863 7.15823 6.95817 6.53143 7.4 6.20006L9 5.00006H8C4.68629 5.00006 2 7.68635 2 11.0001C2 14.3138 4.68629 17.0001 8 17.0001C11.3137 17.0001 14 14.3138 14 11.0001C14 10.4478 14.4477 10.0001 15 10.0001C15.5523 10.0001 16 10.4478 16 11.0001C16 15.4183 12.4183 19.0001 8 19.0001C3.58172 19.0001 0 15.4183 0 11.0001C0 6.58178 3.58172 3.00006 8 3.00006H9L7.4 1.80006C6.95817 1.46869 6.86863 0.841887 7.2 0.400059C7.53137 -0.0417688 8.15817 -0.131312 8.6 0.200059L12.6 3.20006C12.8518 3.38891 13 3.6853 13 4.00006C13 4.31482 12.8518 4.6112 12.6 4.80006L8.6 7.80006Z" fill="#121212"/>
</svg>
