<svg width="25" height="24" viewBox="0 0 25 24" fill="none" xmlns="http://www.w3.org/2000/svg">
<path fill-rule="evenodd" clip-rule="evenodd" d="M14.4702 2.77222C10.5877 2.77222 7.44039 5.91957 7.44039 9.80202C7.44039 11.5304 8.06414 13.1131 9.09882 14.3373L5.64154 17.7946C5.34865 18.0875 5.34865 18.5623 5.64154 18.8552C5.93444 19.1481 6.40931 19.1481 6.70221 18.8552L10.1834 15.374C11.3699 16.2882 12.8566 16.8318 14.4702 16.8318C18.3527 16.8318 21.5 13.6845 21.5 9.80202C21.5 5.91957 18.3527 2.77222 14.4702 2.77222ZM8.94039 9.80202C8.94039 6.748 11.4162 4.27222 14.4702 4.27222C17.5242 4.27222 20 6.748 20 9.80202C20 12.8561 17.5242 15.3318 14.4702 15.3318C11.4162 15.3318 8.94039 12.8561 8.94039 9.80202Z" fill="white"/>
</svg>
