<svg width="25" height="24" viewBox="0 0 25 24" fill="none" xmlns="http://www.w3.org/2000/svg">
<path fill-rule="evenodd" clip-rule="evenodd" d="M4.31945 12.6502C2.33657 9.62826 2.98044 5.59357 5.80538 3.33889C5.95796 3.21711 6.11339 3.09688 6.27255 2.98372C7.43743 2.15554 9.02483 2.26416 10.066 3.24331C10.5757 3.72258 11.158 4.22765 11.5665 4.79945C12.3116 5.84256 12.3116 7.24385 11.5665 8.28696C11.3051 8.65285 10.9408 8.92132 10.6537 9.26274C10.3941 9.57141 10.3454 10.0058 10.5301 10.3643C10.545 10.3932 10.5681 10.4316 10.6817 10.6121C10.8387 10.8615 10.9071 10.9699 10.9769 11.0741C11.63 12.0484 12.4673 12.8856 13.4416 13.5387C13.5458 13.6086 13.6542 13.677 13.9036 13.834C14.0841 13.9476 14.1225 13.9707 14.1514 13.9856C14.5099 14.1703 14.9443 14.1216 15.2529 13.862C15.2779 13.8411 15.3102 13.81 15.461 13.6593C15.7068 13.4134 15.9449 13.1519 16.2287 12.9492C17.2718 12.2041 18.6731 12.2041 19.7162 12.9492C20.2988 13.3653 20.7837 13.93 21.2724 14.4496C22.2515 15.4909 22.3602 17.0783 21.532 18.2431C21.4188 18.4023 21.2986 18.5577 21.1768 18.7103C18.9221 21.5353 14.8874 22.1791 11.8655 20.1962C11.6781 20.0733 11.495 19.9434 11.3115 19.8148C8.74035 18.0124 6.5033 15.7753 4.70092 13.2042C4.57229 13.0207 4.4424 12.8376 4.31945 12.6502ZM7.05299 4.90205C5.03518 6.51253 4.57527 9.39446 5.99162 11.553C6.10333 11.7232 6.22173 11.8894 6.33861 12.0562C8.00748 14.4369 10.0788 16.5082 12.4595 18.1771C12.6263 18.294 12.7925 18.4124 12.9627 18.5241C15.1212 19.9404 18.0032 19.4805 19.6136 17.4627C19.7124 17.339 19.8102 17.2132 19.9019 17.0843C20.178 16.696 20.1418 16.1668 19.8154 15.8198C19.8075 15.8113 19.7959 15.7996 19.7412 15.7449L18.9769 14.9806C18.6723 14.6759 18.6041 14.6126 18.5537 14.5767C18.206 14.3283 17.7389 14.3283 17.3912 14.5767C17.0715 14.8051 16.8406 15.1401 16.5401 15.3928C15.6141 16.1714 14.311 16.3176 13.2355 15.7636C12.9212 15.6017 12.6212 15.3966 12.328 15.2C11.1372 14.4018 10.1139 13.3785 9.31565 12.1877C9.10622 11.8752 8.89046 11.5487 8.75212 11.2802C8.19806 10.2047 8.34427 8.90157 9.12292 7.97557C9.37411 7.67685 9.7124 7.44173 9.93903 7.12446C10.1874 6.77676 10.1874 6.30966 9.93903 5.96196C9.90305 5.91159 9.83974 5.84343 9.53507 5.53876L8.77079 4.77447C8.71607 4.71976 8.70434 4.7082 8.69593 4.70028C8.34885 4.3739 7.81972 4.33769 7.43143 4.61375C7.30245 4.70545 7.17666 4.80334 7.05299 4.90205Z" fill="#121212"/>
<path fill-rule="evenodd" clip-rule="evenodd" d="M15.5 1C16.0522 1 16.5 1.44772 16.5 2V3.41421C16.5 3.9665 16.0522 4.41421 15.5 4.41421C14.9477 4.41421 14.5 3.9665 14.5 3.41421V2C14.5 1.44772 14.9477 1 15.5 1Z" fill="#121212"/>
<path fill-rule="evenodd" clip-rule="evenodd" d="M23.5 9C23.5 9.55229 23.0522 10 22.5 10H21.0857C20.5335 10 20.0857 9.55229 20.0857 9C20.0857 8.44772 20.5335 8 21.0857 8H22.5C23.0522 8 23.5 8.44772 23.5 9Z" fill="#121212"/>
<path fill-rule="evenodd" clip-rule="evenodd" d="M20.457 3.79289C20.8476 4.18342 20.8476 4.81658 20.457 5.20711L19.457 6.20711C19.0665 6.59763 18.4334 6.59763 18.0428 6.20711C17.6523 5.81658 17.6523 5.18342 18.0428 4.79289L19.0428 3.79289C19.4334 3.40237 20.0665 3.40237 20.457 3.79289Z" fill="#121212"/>
</svg>
