<svg width="500" height="500" viewBox="0 0 500 500" fill="none" xmlns="http://www.w3.org/2000/svg">
<g clip-path="url(#clip0_193_13428)">
<rect width="500" height="500" fill="white"/>
<path d="M-0.556763 160.516C-0.556763 123.764 15.1429 89.1601 43.7947 63.0282C72.4465 36.8963 110.387 22.5775 150.683 22.5775H500V92.7398H150.683C130.928 92.7398 112.35 99.7797 98.2204 112.667C84.0905 125.554 76.3714 142.617 76.3714 160.635L75.8481 278.408C72.3157 309.67 46.4113 334.847 13.0496 339.502L-0.556763 341.291V160.516Z" fill="#ED0E00"/>
<path d="M-0.556763 478.275V408.112H348.76C368.515 408.112 387.224 400.953 401.223 388.185C415.353 375.298 423.072 358.355 423.072 340.336L423.202 228.649C423.202 195.358 450.415 166.482 486.393 161.47L500 159.561V340.336C500 377.088 484.169 411.692 455.648 437.824C426.996 463.956 389.055 478.275 348.76 478.275H-0.556763Z" fill="#ED0E00"/>
<path d="M295.251 341.53V250.963L249.722 300.483L204.192 250.963V341.53H143.88V163.141H201.053L249.722 220.536L298.521 163.141H355.563V341.53H295.251Z" fill="#ED0E00"/>
</g>
<defs>
<clipPath id="clip0_193_13428">
<rect width="500" height="500" fill="white"/>
</clipPath>
</defs>
</svg>
