<svg width="180" height="180" viewBox="0 0 180 180" fill="none" xmlns="http://www.w3.org/2000/svg">
<rect width="180" height="180" fill="white"/>
<path d="M40.5567 71.9867C40.5567 64.6854 43.6757 57.8108 49.3678 52.6193C55.0599 47.4278 62.5974 44.5832 70.6029 44.5832H140V58.522H70.6029C66.6781 58.522 62.9873 59.9206 60.1803 62.4808C57.3732 65.041 55.8397 68.4308 55.8397 72.0104L55.7357 95.4078C55.0339 101.619 49.8876 106.62 43.2598 107.545L40.5567 107.901V71.9867Z" fill="#ED0E00"/>
<path d="M40.5567 135.115V121.176H109.954C113.879 121.176 117.595 119.753 120.376 117.217C123.184 114.657 124.717 111.29 124.717 107.711L124.743 85.5225C124.743 78.9088 130.149 73.1719 137.297 72.1764L140 71.7971V107.711C140 115.012 136.855 121.887 131.189 127.078C125.497 132.27 117.959 135.115 109.954 135.115H40.5567Z" fill="#ED0E00"/>
<path d="M99.3234 107.948V89.9554L90.2784 99.7933L81.2333 89.9554V107.948H69.2513V72.5082H80.6095L90.2784 83.9106L99.9731 72.5082H111.305V107.948H99.3234Z" fill="#ED0E00"/>
</svg>
