<svg width="20" height="22" viewBox="0 0 20 22" fill="none" xmlns="http://www.w3.org/2000/svg">
<path d="M7.5 12.0024C7.5 12.5533 7.05334 13 6.50236 13H5.50236C4.95138 13 4.50472 12.5533 4.50472 12.0024C4.50472 11.4514 4.95138 11.0047 5.50236 11.0047H6.50236C7.05334 11.0047 7.5 11.4514 7.5 12.0024Z" fill="#121212"/>
<path d="M6.50236 17C7.05334 17 7.5 16.5533 7.5 16.0024C7.5 15.4514 7.05334 15.0047 6.50236 15.0047H5.50236C4.95138 15.0047 4.50472 15.4514 4.50472 16.0024C4.50472 16.5533 4.95138 17 5.50236 17H6.50236Z" fill="#121212"/>
<path d="M11.5 12.0024C11.5 12.5533 11.0533 13 10.5024 13H9.50236C8.95138 13 8.50472 12.5533 8.50472 12.0024C8.50472 11.4514 8.95138 11.0047 9.50236 11.0047H10.5024C11.0533 11.0047 11.5 11.4514 11.5 12.0024Z" fill="#121212"/>
<path d="M10.5024 17C11.0533 17 11.5 16.5533 11.5 16.0024C11.5 15.4514 11.0533 15.0047 10.5024 15.0047H9.50236C8.95138 15.0047 8.50472 15.4514 8.50472 16.0024C8.50472 16.5533 8.95138 17 9.50236 17H10.5024Z" fill="#121212"/>
<path fill-rule="evenodd" clip-rule="evenodd" d="M4.93417 2C4.04769 1.99995 3.28387 1.99991 2.67221 2.08215C2.0167 2.17028 1.38835 2.36902 0.878684 2.87868C0.369022 3.38835 0.170277 4.0167 0.0821453 4.67221C-9.01893e-05 5.28387 -4.73896e-05 6.04769 2.43993e-06 6.93417V17.0658C-4.73896e-05 17.9523 -9.01893e-05 18.7161 0.0821453 19.3278C0.170277 19.9833 0.369022 20.6117 0.878684 21.1213C1.38835 21.631 2.0167 21.8297 2.67221 21.9179C3.28388 22.0001 4.0477 22.0001 4.9342 22H15.0658C15.9523 22.0001 16.7161 22.0001 17.3278 21.9179C17.9833 21.8297 18.6117 21.631 19.1213 21.1213C19.631 20.6117 19.8297 19.9833 19.9179 19.3278C20.0001 18.7161 20.0001 17.9523 20 17.0658V6.9342C20.0001 6.0477 20.0001 5.28388 19.9179 4.67221C19.8297 4.0167 19.631 3.38835 19.1213 2.87868C18.6117 2.36902 17.9833 2.17028 17.3278 2.08215C16.7161 1.99991 15.9523 1.99995 15.0658 2H4.93417ZM2.2929 4.2929C2.36902 4.21677 2.50497 4.12263 2.93871 4.06431C3.40122 4.00213 4.02893 4 5 4H15C15.9711 4 16.5988 4.00213 17.0613 4.06431C17.495 4.12263 17.631 4.21677 17.7071 4.2929C17.7832 4.36902 17.8774 4.50497 17.9357 4.93871C17.9979 5.40122 18 6.02893 18 7V17C18 17.9711 17.9979 18.5988 17.9357 19.0613C17.8774 19.495 17.7832 19.631 17.7071 19.7071C17.631 19.7832 17.495 19.8774 17.0613 19.9357C16.5988 19.9979 15.9711 20 15 20H5C4.02893 20 3.40122 19.9979 2.93871 19.9357C2.50497 19.8774 2.36902 19.7832 2.2929 19.7071C2.21677 19.631 2.12263 19.495 2.06431 19.0613C2.00213 18.5988 2 17.9711 2 17V7C2 6.02893 2.00213 5.40122 2.06431 4.93871C2.12263 4.50497 2.21677 4.36902 2.2929 4.2929Z" fill="#121212"/>
<path d="M15.5 12.0024C15.5 12.5533 15.0533 13 14.5024 13H13.5024C12.9514 13 12.5047 12.5533 12.5047 12.0024C12.5047 11.4514 12.9514 11.0047 13.5024 11.0047H14.5024C15.0533 11.0047 15.5 11.4514 15.5 12.0024Z" fill="#121212"/>
<path d="M14.5024 17C15.0533 17 15.5 16.5533 15.5 16.0024C15.5 15.4514 15.0533 15.0047 14.5024 15.0047H13.5024C12.9514 15.0047 12.5047 15.4514 12.5047 16.0024C12.5047 16.5533 12.9514 17 13.5024 17H14.5024Z" fill="#121212"/>
<path d="M7.5 7.99764C7.5 8.54862 7.05334 8.99528 6.50236 8.99528H5.50236C4.95138 8.99528 4.50472 8.54862 4.50472 7.99764C4.50472 7.44666 4.95138 7 5.50236 7H6.50236C7.05334 7 7.5 7.44666 7.5 7.99764Z" fill="#121212"/>
<path d="M11.5 7.99764C11.5 8.54862 11.0533 8.99528 10.5024 8.99528H9.50236C8.95138 8.99528 8.50472 8.54862 8.50472 7.99764C8.50472 7.44666 8.95138 7 9.50236 7H10.5024C11.0533 7 11.5 7.44666 11.5 7.99764Z" fill="#121212"/>
<path d="M15.5 7.99764C15.5 8.54862 15.0533 8.99528 14.5024 8.99528H13.5024C12.9514 8.99528 12.5047 8.54862 12.5047 7.99764C12.5047 7.44666 12.9514 7 13.5024 7H14.5024C15.0533 7 15.5 7.44666 15.5 7.99764Z" fill="#121212"/>
<rect x="13" width="2" height="6" rx="1" fill="#121212"/>
<rect x="5" width="2" height="6" rx="1" fill="#121212"/>
</svg>
