<svg width="24" height="24" viewBox="0 0 24 24" fill="none" xmlns="http://www.w3.org/2000/svg">
<path fill-rule="evenodd" clip-rule="evenodd" d="M13.0605 19.7781C10.6198 22.2188 6.66247 22.2188 4.2217 19.7781C1.78092 17.3373 1.78092 13.38 4.2217 10.9392L12.1766 2.98428C13.934 1.22692 16.7832 1.22692 18.5406 2.98428C20.298 4.74164 20.298 7.59088 18.5406 9.34824L11.6463 16.2425C10.5724 17.3165 8.83117 17.3165 7.75723 16.2425C6.68329 15.1686 6.68329 13.4274 7.75723 12.3534L13.5909 6.51981C13.9814 6.12929 14.6145 6.12929 15.0051 6.51981C15.3956 6.91034 15.3956 7.5435 15.0051 7.93403L9.17144 13.7677C8.87855 14.0606 8.87855 14.5354 9.17144 14.8283C9.46434 15.1212 9.93921 15.1212 10.2321 14.8283L17.1264 7.93403C18.1027 6.95772 18.1027 5.3748 17.1264 4.39849C16.1501 3.42218 14.5672 3.42218 13.5909 4.39849L5.63591 12.3534C3.97618 14.0132 3.97618 16.7041 5.63591 18.3639C7.29564 20.0236 9.98659 20.0236 11.6463 18.3639L18.5406 11.4696C18.9311 11.079 19.5643 11.079 19.9548 11.4696C20.3453 11.8601 20.3453 12.4932 19.9548 12.8838L13.0605 19.7781Z" fill="#121212"/>
</svg>
