<svg width="24" height="24" viewBox="0 0 24 24" fill="none" xmlns="http://www.w3.org/2000/svg">
<path d="M12 1C5.92487 1 1 5.92487 1 12C1 18.0751 5.92487 23 12 23C18.0751 23 23 18.0751 23 12C23 5.92487 18.0751 1 12 1Z" fill="#FFAFAA"/>
<path fill-rule="evenodd" clip-rule="evenodd" d="M12 5C12.5523 5 13 5.44772 13 6L13 11.1198L16.7474 15.3356C17.1143 15.7484 17.0771 16.3805 16.6644 16.7474C16.2516 17.1143 15.6195 17.0771 15.2526 16.6644L11.2526 12.1644C11.0899 11.9813 11 11.7449 11 11.5L11 6C11 5.44772 11.4477 5 12 5Z" fill="#121212"/>
</svg>
