<svg width="24" height="24" viewBox="0 0 24 24" fill="none" xmlns="http://www.w3.org/2000/svg">
<path d="M5.30562 3.33885C2.48069 5.59353 1.83682 9.62823 3.8197 12.6502C3.94264 12.8375 4.07254 13.0207 4.20116 13.2041C6.00354 15.7753 8.2406 18.0124 10.8118 19.8147C10.9953 19.9434 11.1784 20.0733 11.3657 20.1962C14.3877 22.1791 18.4224 21.5352 20.677 18.7103C20.7989 18.5577 20.919 18.4023 21.0322 18.2431C21.8604 17.0782 21.7518 15.4908 20.7726 14.4496C20.293 13.9397 19.7891 13.3582 19.2165 12.9492C18.1734 12.2041 16.7721 12.2041 15.729 12.9492C15.5248 13.095 15.3301 13.2899 15.1039 13.5165C14.9885 13.632 14.8782 13.7569 14.7532 13.862C14.4445 14.1215 14.0102 14.1703 13.6517 13.9856C13.4054 13.8587 13.1715 13.6927 12.9418 13.5387C11.9675 12.8856 11.1303 12.0484 10.4772 11.0741C10.3231 10.8442 10.1571 10.6104 10.0303 10.3642C9.84562 10.0057 9.89436 9.57137 10.1539 9.26271C10.259 9.13775 10.3839 9.02743 10.4994 8.91198C10.726 8.68575 10.9209 8.49108 11.0667 8.28693C11.8118 7.24382 11.8118 5.84253 11.0667 4.79942C10.6577 4.22679 10.0762 3.72282 9.56629 3.24327C8.52507 2.26413 6.93768 2.15551 5.77279 2.98369C5.6136 3.09687 5.45822 3.21706 5.30562 3.33885Z" fill="#FFAFAA"/>
<path fill-rule="evenodd" clip-rule="evenodd" d="M15 1C15.5523 1 16 1.44772 16 2V3.41421C16 3.9665 15.5523 4.41421 15 4.41421C14.4477 4.41421 14 3.9665 14 3.41421V2C14 1.44772 14.4477 1 15 1Z" fill="#121212"/>
<path fill-rule="evenodd" clip-rule="evenodd" d="M23 9C23 9.55229 22.5523 10 22 10H20.5858C20.0335 10 19.5858 9.55229 19.5858 9C19.5858 8.44772 20.0335 8 20.5858 8H22C22.5523 8 23 8.44772 23 9Z" fill="#121212"/>
<path fill-rule="evenodd" clip-rule="evenodd" d="M19.9571 3.79289C20.3476 4.18342 20.3476 4.81658 19.9571 5.20711L18.9571 6.20711C18.5666 6.59763 17.9334 6.59763 17.5429 6.20711C17.1524 5.81658 17.1524 5.18342 17.5429 4.79289L18.5429 3.79289C18.9334 3.40237 19.5666 3.40237 19.9571 3.79289Z" fill="#121212"/>
</svg>
