<svg width="16" height="16" viewBox="0 0 16 16" fill="none" xmlns="http://www.w3.org/2000/svg">
<path d="M2 11C2 10.4477 1.55228 10 1 10C0.447715 10 0 10.4477 0 11H2ZM1 12H0H1ZM16 11C16 10.4477 15.5523 10 15 10C14.4477 10 14 10.4477 14 11H16ZM7.21913 11.3753C6.87412 11.8066 6.94404 12.4359 7.37531 12.7809C7.80657 13.1259 8.43586 13.056 8.78087 12.6247L7.21913 11.3753ZM12.7809 7.62469C13.1259 7.19343 13.056 6.56414 12.6247 6.21913C12.1934 5.87412 11.5641 5.94404 11.2191 6.37531L12.7809 7.62469ZM7.21913 12.6247C7.56414 13.056 8.19343 13.1259 8.62469 12.7809C9.05596 12.4359 9.12588 11.8066 8.78087 11.3753L7.21913 12.6247ZM4.78087 6.37531C4.43586 5.94404 3.80657 5.87412 3.3753 6.21913C2.94404 6.56414 2.87412 7.19343 3.21913 7.62469L4.78087 6.37531ZM7 12C7 12.5523 7.44772 13 8 13C8.55228 13 9 12.5523 9 12H7ZM9 1C9 0.447715 8.55228 0 8 0C7.44772 0 7 0.447715 7 1H9ZM0 11V12H2V11H0ZM0 12C0 14.2091 1.79086 16 4 16V14C2.89543 14 2 13.1046 2 12H0ZM4 16H12V14H4V16ZM12 16C14.2091 16 16 14.2091 16 12H14C14 13.1046 13.1046 14 12 14V16ZM16 12V11H14V12H16ZM8.78087 12.6247L12.7809 7.62469L11.2191 6.37531L7.21913 11.3753L8.78087 12.6247ZM8.78087 11.3753L4.78087 6.37531L3.21913 7.62469L7.21913 12.6247L8.78087 11.3753ZM9 12V1H7V12H9Z" fill="#121212"/>
</svg>
