<svg width="152" height="26" viewBox="0 0 152 26" fill="none" xmlns="http://www.w3.org/2000/svg">
<path d="M80.9281 21.5429V4.55176H92.7037V8.49494H85.8351V21.5429H80.9281Z" fill="#ED0E00"/>
<path d="M107.513 21.5429V14.8884H100.219V21.5429H95.3115V4.55176H100.219V10.8916H107.513V4.55176H112.42V21.5429H107.513Z" fill="#ED0E00"/>
<path d="M140.908 21.5429V8.49494H135.171V4.55176H151.574V8.49494H145.815V21.5429H140.908Z" fill="#ED0E00"/>
<path d="M127.949 21.5429V11.8557L120.133 21.5429H116.027V4.55176H120.941V14.1319L128.618 4.55176H132.856V21.5429H127.949Z" fill="#ED0E00"/>
<path d="M52.7193 21.5429V11.4406L47.8197 16.7763L42.9199 11.4406V21.5429H38.0128V4.55176H42.8539L47.8197 10.3962L52.7857 4.55176H57.6268V21.5429H52.7193Z" fill="#ED0E00"/>
<path d="M66.9487 15.5645H71.5101L69.2259 10.2088L66.9487 15.5645ZM74.0666 21.5429L73.0456 19.1596H65.4058L64.3923 21.5429H59.4484L67.0292 4.55176H71.5691L79.1134 21.5429H74.0666Z" fill="#ED0E00"/>
<path d="M0 8.00149C0 5.93896 0.881427 3.997 2.49003 2.53047C4.09864 1.06395 6.22873 0.260376 8.49109 0.260376H28.1028V4.19789H8.49109C7.38196 4.19789 6.33891 4.59297 5.54566 5.3162C4.75236 6.03942 4.31899 6.99699 4.31899 8.00818L4.28961 14.6176C4.09129 16.372 2.63693 17.785 0.763905 18.0462L0 18.1466V8.00149Z" fill="#ED0E00"/>
<path d="M0 25.8343V21.8967H19.6117C20.7209 21.8967 21.7712 21.4949 22.5572 20.7784C23.3505 20.0552 23.7838 19.1043 23.7838 18.0931L23.7912 11.8252C23.7912 9.95695 25.319 8.33638 27.3389 8.05515L28.1028 7.948V18.0931C28.1028 20.1556 27.214 22.0976 25.6128 23.5642C24.0042 25.0307 21.8741 25.8343 19.6117 25.8343H0Z" fill="#ED0E00"/>
<path d="M16.6076 18.16V13.0774L14.0514 15.8564L11.4953 13.0774V18.16H8.10913V8.1488H11.319L14.0514 11.3698L16.7912 8.1488H19.9937V18.16H16.6076Z" fill="#ED0E00"/>
</svg>
