<svg width="24" height="24" viewBox="0 0 24 24" fill="none" xmlns="http://www.w3.org/2000/svg">
<path fill-rule="evenodd" clip-rule="evenodd" d="M14.4161 3.99992L14.5 3.99997L14.5839 3.99992C14.9646 3.99962 15.2924 3.99936 15.5853 4.05761C16.7754 4.29433 17.7057 5.22462 17.9424 6.41469C17.9783 6.59512 17.9919 6.78881 17.9971 6.99997H20C20.5523 6.99997 21 7.44768 21 7.99997C21 8.55225 20.5523 8.99997 20 8.99997H17.9971C17.9919 9.21112 17.9783 9.40482 17.9424 9.58524C17.7057 10.7753 16.7754 11.7056 15.5853 11.9423C15.2924 12.0006 14.9646 12.0003 14.5839 12L14.5 12L14.4161 12C14.0354 12.0003 13.7076 12.0006 13.4148 11.9423C12.2247 11.7056 11.2944 10.7753 11.0577 9.58524C11.0218 9.40482 11.0081 9.21112 11.003 8.99997H4C3.44772 8.99997 3 8.55225 3 7.99997C3 7.44768 3.44772 6.99997 4 6.99997H11.003C11.0081 6.78881 11.0218 6.59512 11.0577 6.41469C11.2944 5.22462 12.2247 4.29433 13.4148 4.05761C13.7076 3.99936 14.0354 3.99962 14.4161 3.99992ZM16 7.49997V7.99258L16 7.99997L16 8.00736V8.49997C16 9.01255 15.9952 9.12281 15.9808 9.19506C15.9019 9.59175 15.5918 9.90184 15.1951 9.98075C15.1229 9.99512 15.0126 9.99997 14.5 9.99997C13.9874 9.99997 13.8772 9.99512 13.8049 9.98075C13.4082 9.90184 13.0981 9.59175 13.0192 9.19506C13.0049 9.12281 13 9.01255 13 8.49997V7.49997C13 6.98738 13.0049 6.87712 13.0192 6.80487C13.0981 6.40818 13.4082 6.09809 13.8049 6.01918C13.8772 6.00481 13.9874 5.99997 14.5 5.99997C15.0126 5.99997 15.1229 6.00481 15.1951 6.01918C15.5918 6.09809 15.9019 6.40818 15.9808 6.80487C15.9952 6.87712 16 6.98738 16 7.49997Z" fill="#121212"/>
<path fill-rule="evenodd" clip-rule="evenodd" d="M20 17C20.5523 17 21 16.5523 21 16C21 15.4477 20.5523 15 20 15H12.9971C12.9919 14.7888 12.9783 14.5951 12.9424 14.4147C12.7057 13.2246 11.7754 12.2943 10.5853 12.0576C10.2924 11.9994 9.96461 11.9996 9.58391 11.9999L9.50003 12L9.41614 11.9999C9.03544 11.9996 8.70761 11.9994 8.41476 12.0576C7.22468 12.2943 6.29439 13.2246 6.05767 14.4147C6.02178 14.5951 6.0081 14.7888 6.00296 15L6 15H4C3.44772 15 3 15.4477 3 16C3 16.5523 3.44772 17 4 17H6L6.00296 17C6.0081 17.2111 6.02178 17.4048 6.05767 17.5852C6.29439 18.7753 7.22468 19.7056 8.41476 19.9423C8.70761 20.0006 9.03544 20.0003 9.41614 20L9.50003 20L9.58391 20C9.96461 20.0003 10.2924 20.0006 10.5853 19.9423C11.7754 19.7056 12.7057 18.7753 12.9424 17.5852C12.9783 17.4048 12.9919 17.2111 12.9971 17H20ZM11 15.9926C11 15.995 11 15.9975 11 16C11 16.0024 11 16.0049 11 16.0074V16.5C11 17.0126 10.9952 17.1228 10.9808 17.1951C10.9019 17.5917 10.5918 17.9018 10.1951 17.9808C10.1229 17.9951 10.0126 18 9.50003 18C8.98744 18 8.87718 17.9951 8.80494 17.9808C8.40825 17.9018 8.09815 17.5917 8.01924 17.1951C8.00487 17.1228 8.00003 17.0126 8.00003 16.5V15.5C8.00003 14.9874 8.00487 14.8771 8.01924 14.8049C8.09815 14.4082 8.40825 14.0981 8.80494 14.0192C8.87718 14.0048 8.98744 14 9.50003 14C10.0126 14 10.1229 14.0048 10.1951 14.0192C10.5918 14.0981 10.9019 14.4082 10.9808 14.8049C10.9952 14.8771 11 14.9874 11 15.5V15.9926Z" fill="#121212"/>
</svg>
