<svg width="24" height="24" viewBox="0 0 24 24" fill="none" xmlns="http://www.w3.org/2000/svg">
<path d="M12 9C11.4477 9 11 8.55228 11 8V7C11 6.44772 11.4477 6 12 6C12.5523 6 13 6.44772 13 7V8C13 8.55228 12.5523 9 12 9Z" fill="#121212"/>
<path d="M12 18C11.4477 18 11 17.5523 11 17V11C11 10.4477 11.4477 10 12 10C12.5523 10 13 10.4477 13 11V17C13 17.5523 12.5523 18 12 18Z" fill="#121212"/>
<path fill-rule="evenodd" clip-rule="evenodd" d="M12 1C5.92487 1 1 5.92487 1 12C1 18.0751 5.92487 23 12 23C18.0751 23 23 18.0751 23 12C23 5.92487 18.0751 1 12 1ZM3 12C3 7.02944 7.02944 3 12 3C16.9706 3 21 7.02944 21 12C21 16.9706 16.9706 21 12 21C7.02944 21 3 16.9706 3 12Z" fill="#121212"/>
</svg>
