<svg width="16" height="16" viewBox="0 0 16 16" fill="none" xmlns="http://www.w3.org/2000/svg">
<path d="M9.33301 6.00033C9.7012 6.00033 9.99967 6.2988 9.99967 6.66699V12.0003C9.99967 12.3685 9.7012 12.667 9.33301 12.667C8.96482 12.667 8.66634 12.3685 8.66634 12.0003V6.66699C8.66634 6.2988 8.96482 6.00033 9.33301 6.00033Z" fill="#121212"/>
<path d="M7.33301 6.66699C7.33301 6.2988 7.03453 6.00033 6.66634 6.00033C6.29815 6.00033 5.99967 6.2988 5.99967 6.66699V12.0003C5.99967 12.3685 6.29815 12.667 6.66634 12.667C7.03453 12.667 7.33301 12.3685 7.33301 12.0003V6.66699Z" fill="#121212"/>
<path fill-rule="evenodd" clip-rule="evenodd" d="M11.2664 3.33366H13.9997C14.3679 3.33366 14.6663 3.63214 14.6663 4.00033C14.6663 4.36852 14.3679 4.66699 13.9997 4.66699H13.2926L12.8187 12.2503C12.7839 12.8067 12.7539 13.2879 12.6789 13.6724C12.5982 14.0855 12.4505 14.4775 12.1165 14.7913C11.7824 15.1051 11.382 15.2281 10.9647 15.2828C10.5762 15.3337 10.0941 15.3337 9.53667 15.3337H6.46268C5.90523 15.3337 5.42313 15.3337 5.03465 15.2828C4.61736 15.2281 4.21693 15.1051 3.88288 14.7913C3.54883 14.4775 3.4011 14.0855 3.32049 13.6724C3.24545 13.2879 3.21541 12.8067 3.18066 12.2504L2.70671 4.66699H1.99967C1.63148 4.66699 1.33301 4.36852 1.33301 4.00033C1.33301 3.63214 1.63148 3.33366 1.99967 3.33366H4.73302C5.04187 1.81216 6.38706 0.666992 7.99969 0.666992C9.61233 0.666992 10.9575 1.81217 11.2664 3.33366ZM6.11348 3.33366H9.88593C9.61134 2.55687 8.8705 2.00033 7.99969 2.00033C7.12888 2.00033 6.38804 2.55687 6.11348 3.33366ZM4.04264 4.66699H11.9567L11.4906 12.1251C11.4524 12.7357 11.4265 13.1285 11.3702 13.4171C11.3176 13.6868 11.2544 13.7718 11.2035 13.8195C11.1527 13.8673 11.0639 13.9251 10.7915 13.9608C10.4999 13.999 10.1062 14.0003 9.49447 14.0003H6.50488C5.89311 14.0003 5.49942 13.999 5.20789 13.9608C4.93541 13.9251 4.84663 13.8673 4.79581 13.8195C4.74499 13.7718 4.68178 13.6868 4.62914 13.4171C4.57283 13.1285 4.54693 12.7357 4.50877 12.1251L4.04264 4.66699Z" fill="#121212"/>
</svg>
